HIERARCHY
ROOT Hips
{
	OFFSET 0.000000 0.000000 0.000000 
	CHANNELS 6 Xposition Yposition Zposition Yrotation Zrotation Xrotation 
	JOINT Lumbar
	{
		OFFSET 0.000000 0.000000 0.000000 
		CHANNELS 3 Zrotation Xrotation Yrotation
		JOINT Neck
		{
			OFFSET 0.000000 0.445665 0.000000 
			CHANNELS 3 Zrotation Xrotation Yrotation
			End Site
			{
				OFFSET 0.000000 0.227535 0.000000 
			}
		}
		JOINT RightShoulder
		{
			OFFSET 0.019635 0.377685 0.194865 
			CHANNELS 3 Zrotation Xrotation Yrotation
			JOINT RightElbow
			{
				OFFSET 0.000000 -0.243375 0.000000 
				CHANNELS 2 Zrotation Yrotation
				JOINT RightWrist
				{
					OFFSET 0.000000 -0.264825 0.000000 
					CHANNELS 2 Zrotation Xrotation
					End Site
					{
						OFFSET 0.006600 -0.176220 0.000990 
					}
				}
			}
		}
		JOINT LeftShoulder
		{
			OFFSET 0.019635 0.377685 -0.194865 
			CHANNELS 3 Zrotation Xrotation Yrotation
			JOINT LeftElbow
			{
				OFFSET 0.000000 -0.243375 0.000000 
				CHANNELS 2 Zrotation Yrotation
				JOINT LeftWrist
				{
					OFFSET 0.000000 -0.264825 0.000000 
					CHANNELS 2 Zrotation Xrotation
					End Site
					{
						OFFSET 0.006600 -0.176220 -0.000990 
					}
				}
			}
		}
	}
	JOINT RightHip
	{
		OFFSET 0.052140 -0.069960 0.075570 
		CHANNELS 3 Zrotation Xrotation Yrotation
		JOINT RightKnee
		{
			OFFSET 0.000000 -0.402270 0.000000 
			CHANNELS 1 Zrotation
			JOINT RightAnkle
			{
				OFFSET 0.000000 -0.404085 0.000000 
				CHANNELS 3 Zrotation Xrotation Yrotation
				End Site
				{
					OFFSET 0.204105 -0.089430 0.008415 
				}
			}
		}
	}
	JOINT LeftHip
	{
		OFFSET 0.052140 -0.069960 -0.075570 
		CHANNELS 3 Zrotation Xrotation Yrotation
		JOINT LeftKnee
		{
			OFFSET 0.000000 -0.402270 0.000000 
			CHANNELS 1 Zrotation
			JOINT LeftAnkle
			{
				OFFSET 0.000000 -0.404085 0.000000 
				CHANNELS 3 Zrotation Xrotation Yrotation
				End Site
				{
					OFFSET 0.204105 -0.089430 -0.008415 
				}
			}
		}
	}
}
MOTION
Frames: 33
Frame Time: 0.02
-0.22032 0.00703 0.29884 -270.05359 -29.55915 0.29769 33.74967 1.39875 -2.41208 -5.76474 -6.79089 -0.83079 -35.50181 -10.71233 -22.61489 48.2714 87.14147 2.41295 0.37074 -6.14841 12.10179 2.09851 122.04303 -83.88366 4.49799 2.19136 35.16591 -4.6016 -0.45862 -21.12464 -7.03996 -2.3777 -1.86373 48.37083 2.9454 2.22419 -37.8242 -8.25357 3.44376 2.51906
-0.22326 0.00723 0.2949 -272.02718 -29.6526 0.3685 33.58315 1.55288 -2.79783 -5.69206 -6.92546 -0.83079 -33.38381 -11.17828 -21.97777 48.40461 87.1075 2.41367 0.3478 -6.20382 11.84371 1.77815 122.18047 -83.96854 4.78255 1.79865 35.3793 -4.66707 1.14103 -21.20122 -7.02449 -2.3446 -1.84643 47.85039 2.5837 2.7163 -35.49805 -8.17568 3.33985 2.45713
-0.2264 0.00678 0.29017 -274.03824 -29.6471 0.32092 33.53506 1.70264 -3.46326 -5.7717 -6.85659 -0.83079 -30.80386 -11.58475 -21.32432 48.06476 87.04837 2.38435 0.33016 -6.43395 11.43789 1.66286 122.34886 -84.1593 5.14545 1.27773 35.55203 -4.5917 3.09449 -21.48487 -6.98664 -2.36901 -1.8598 47.04351 2.36808 2.94046 -33.67122 -8.16458 3.27582 2.42142
-0.22948 0.00659 0.28584 -275.99152 -29.68635 0.34014 33.43759 1.83856 -4.01851 -5.78249 -6.873 -0.83079 -28.47001 -11.98937 -20.69309 47.9609 86.98179 2.35349 0.30863 -6.55359 11.12136 1.44069 122.5008 -84.28899 5.44944 0.84582 35.77375 -4.60308 4.8147 -21.73488 -6.96012 -2.36223 -1.85643 46.37641 2.08136 3.3124 -31.64867 -8.1199 3.19384 2.37379
-0.23248 0.00656 0.28132 -278.12174 -29.72947 0.30859 33.32715 2.03993 -4.50997 -5.7942 -6.92717 -0.83079 -25.97389 -12.51345 -19.99495 47.7959 86.9866 2.38116 0.29272 -6.81723 10.71021 1.2852 122.66456 -84.47401 5.85185 0.28368 35.87166 -4.52474 6.84076 -21.73384 -6.92907 -2.37504 -1.86393 45.65682 1.81569 3.5917 -29.45763 -8.09037 3.10999 2.3257
-0.23567 0.00604 0.27701 -279.8894 -29.73814 0.35038 33.268 2.10529 -5.19484 -5.83977 -6.84801 -0.83079 -23.71506 -12.7752 -19.43597 47.63058 86.8412 2.28288 0.26627 -6.81629 10.45918 1.0347 122.8146 -84.56795 6.06852 -0.03732 36.2115 -4.59544 8.31163 -22.29876 -6.90204 -2.36202 -1.85679 44.98084 1.54276 3.98899 -27.7497 -8.04495 3.04009 2.28506
-0.23941 0.00425 0.27349 -280.65868 -29.69823 0.65697 33.34245 1.78613 -6.38119 -5.93465 -6.49285 -0.83079 -22.15871 -12.33176 -19.24209 47.63668 86.27127 1.83181 0.21364 -6.05733 10.7145 0.48877 122.86749 -84.39427 5.74322 0.33953 37.28336 -5.1365 8.19105 -24.42984 -6.8911 -2.25593 -1.79751 44.52452 1.18523 4.8354 -27.26135 -7.93455 2.99736 2.25755
-0.24331 0.00199 0.27021 -281.05871 -29.62336 1.03502 33.4605 1.33233 -7.7448 -6.05919 -6.00171 -0.83079 -20.86978 -11.6264 -19.19417 47.64388 85.55479 1.25747 0.14962 -5.02167 11.13096 -0.16417 122.91447 -84.12412 5.22893 0.96522 38.58993 -5.8273 7.4957 -27.11189 -6.88496 -2.12358 -1.72339 44.11937 0.82028 5.7968 -27.24607 -7.80651 2.96781 2.23691
-0.24708 0 0.26683 -281.61988 -29.54893 1.35846 33.54362 0.94665 -9.00367 -6.17423 -5.54502 -0.83079 -19.50218 -11.03773 -19.09399 47.61184 84.91707 0.74899 0.08815 -4.10096 11.45632 -0.78028 122.99679 -83.89091 4.80893 1.4743 39.7537 -6.43301 7.04406 -29.50827 -6.87697 -2.00828 -1.65881 43.67277 0.47693 6.66668 -27.01422 -7.68931 2.93333 2.21378
-0.25115 -0.00224 0.26339 -282.21193 -29.53378 1.77153 33.69256 0.53097 -10.37619 -6.27782 -5.19839 -0.83079 -17.93787 -10.45487 -18.93078 47.73211 84.22782 0.19994 0.03779 -3.23192 11.85357 -1.33899 122.94139 -83.68784 4.36069 1.9863 41.06888 -7.10584 6.67425 -32.06691 -6.86704 -1.8728 -1.58313 43.28956 0.06137 7.69541 -26.80488 -7.56233 2.89545 2.18872
-0.25459 -0.00405 0.26015 -282.64979 -29.39128 2.01603 33.71595 0.14658 -11.54829 -6.41032 -4.59085 -0.83079 -16.85228 -9.80096 -18.93749 47.53537 83.61043 -0.29612 -0.03826 -2.18753 12.13918 -2.04575 123.17233 -83.40105 3.91977 2.56236 42.12461 -7.67625 5.99834 -34.40807 -6.86227 -1.77306 -1.52707 42.79424 -0.20695 8.42125 -26.65572 -7.45091 2.86763 2.1692
-0.25638 -0.00462 0.25741 -282.76504 -28.87926 1.78176 33.35782 -0.1246 -12.14049 -6.61441 -3.3152 -0.83079 -17.03072 -8.99378 -19.34835 46.51815 83.23654 -0.59274 -0.18398 -0.7249 12.097 -3.13086 124.18164 -82.89384 3.58489 3.16886 42.40827 -7.9281 4.57037 -36.07658 -6.87364 -1.77215 -1.52513 41.94489 -0.07178 8.3076 -26.54739 -7.38423 2.86085 2.16102
-0.2575 -0.00473 0.25489 -282.73467 -28.24576 1.37545 32.87588 -0.35843 -12.52049 -6.84589 -1.78004 -0.83079 -17.68268 -8.1282 -19.93224 45.17508 82.93852 -0.83596 -0.35469 0.90353 11.93468 -4.36134 125.48009 -82.31889 3.25084 3.84368 42.42182 -8.07269 2.86202 -37.49321 -6.88973 -1.80892 -1.54395 40.9886 0.21208 7.8824 -26.4829 -7.33394 2.86407 2.15839
-0.25883 -0.00503 0.25229 -282.76306 -27.68563 1.04546 32.46568 -0.60541 -12.98487 -7.06479 -0.35108 -0.83079 -18.11522 -7.30379 -20.45433 43.94579 82.59979 -1.11843 -0.51323 2.45802 11.81413 -5.53147 126.65708 -81.76849 2.89673 4.5493 42.559 -8.26593 1.31036 -38.98458 -6.9016 -1.83236 -1.5556 40.10347 0.43024 7.58398 -26.40196 -7.2775 2.86497 2.15468
-0.26056 -0.00544 0.24961 -282.81227 -27.04732 0.72476 31.99117 -0.87348 -13.50569 -7.28572 1.03691 -0.83079 -18.57446 -6.40928 -20.90428 42.8561 82.28198 -1.34174 -0.67641 4.02315 11.75024 -6.68853 127.79859 -81.19467 2.64081 5.01959 42.70373 -8.46285 -0.38786 -40.66816 -6.92178 -1.83919 -1.55736 39.12387 0.64001 7.34943 -26.32231 -7.21509 2.85746 2.14546
-0.2613 -0.00549 0.24713 -282.78538 -26.54373 0.34418 31.62136 -1.08668 -13.85725 -7.50809 2.56543 -0.83079 -19.0873 -5.64929 -21.55139 41.40455 81.94083 -1.67429 -0.83467 5.59304 11.54149 -7.89659 129.07438 -80.71304 2.15591 5.9715 42.76166 -8.62705 -1.83596 -41.87793 -6.92647 -1.88955 -1.58462 38.31603 0.90306 6.90949 -26.24525 -7.16911 2.86905 2.14855
-0.25951 -0.00465 0.24517 -282.6112 -26.44055 -0.17046 31.56479 -1.15965 -13.78268 -7.73148 4.45671 -0.83079 -19.63081 -5.28533 -22.63051 38.98275 81.515 -2.31727 -0.98227 7.21072 10.92973 -9.28793 130.72235 -79.98427 1.28314 8.42336 42.67853 -8.70637 -2.55697 -41.89331 -6.88076 -2.05347 -1.67886 38.00087 1.27362 5.95176 -26.15244 -7.16555 2.93602 2.1874
-0.25673 -0.00347 0.24339 -282.3624 -26.47785 -0.73767 31.6192 -1.17772 -13.54592 -7.95473 6.47205 -0.83079 -20.21119 -5.05823 -23.91182 36.21927 81.06433 -3.07139 -1.12248 8.81215 10.18199 -10.70906 132.48233 -79.43369 0.14377 11.32345 42.51049 -8.75958 -3.00801 -41.42863 -6.82046 -2.25923 -1.79763 37.86391 1.69349 4.80257 -26.06065 -7.17787 3.02081 2.23781
-0.25436 -0.00245 0.24152 -282.13156 -26.45154 -1.2742 31.62604 -1.21871 -13.38983 -8.17518 8.40554 -0.83079 -20.77396 -4.76295 -25.14905 33.64341 80.62657 -3.77786 -1.25983 10.37024 9.51638 -12.06666 134.14342 -79.15988 -1.04398 13.89213 42.3583 -8.83765 -3.55829 -41.14575 -6.77108 -2.44464 -1.90436 37.64969 2.09271 3.75802 -25.97382 -7.18231 3.09409 2.28084
-0.25216 -0.00136 0.2397 -281.96209 -26.41886 -1.84573 31.61471 -1.26661 -13.19812 -8.40784 10.45804 -0.83079 -21.35581 -4.49045 -26.20123 30.91266 80.18362 -4.47388 -1.42354 12.14812 8.75908 -13.64632 136.01601 -77.43147 -1.55142 16.99439 42.29122 -8.8573 -4.21649 -41.00523 -6.70384 -2.63824 -2.01625 37.41429 2.48894 2.62806 -25.86558 -7.19004 3.18228 2.33307
-0.24937 -0.00034 0.23782 -281.64983 -26.4358 -2.35413 31.67142 -1.2881 -13.04347 -8.61574 12.28582 -0.83079 -21.90201 -4.20415 -27.67123 28.43636 79.74576 -5.21447 -1.53124 13.46257 8.16424 -14.7613 137.47237 -78.703 -3.49481 19.10101 42.03222 -8.9937 -4.58359 -40.46086 -6.67018 -2.82267 -2.12211 37.26889 2.9021 1.6348 -25.80198 -7.19455 3.24335 2.36876
-0.24536 0.00043 0.23571 -280.95624 -26.54347 -2.67824 31.86966 -1.24522 -13.04252 -8.7458 13.4847 -0.83079 -22.32405 -3.84453 -30.35674 26.67356 79.31828 -6.08811 -1.47769 13.49488 8.03263 -14.64569 137.7376 -88.84926 -9.72359 18.25895 41.24769 -9.45921 -4.19636 -38.89009 -6.73357 -2.98482 -2.21247 37.30975 3.34152 1.06567 -25.85672 -7.18552 3.22643 2.35633
-0.24078 0.00112 0.23352 -280.12372 -26.69856 -2.93531 32.13626 -1.17874 -13.08289 -8.8524 14.44691 -0.83079 -22.70911 -3.46741 -33.43229 25.19406 78.89844 -6.99644 -1.36948 13.06084 8.07322 -14.04851 137.58116 -101.89455 -17.31961 16.41541 40.27746 -10.04288 -3.52631 -36.93699 -6.83109 -3.13371 -2.29452 37.4385 3.79715 0.6425 -25.9569 -7.17274 3.18136 2.32677
-0.23636 0.00185 0.23137 -279.35852 -26.84101 -3.22068 32.38542 -1.12638 -13.09826 -8.97603 15.50277 -0.83079 -23.12031 -3.09918 -36.25773 23.63387 78.48089 -7.86431 -1.29171 12.84479 8.04785 -13.6331 137.62591 -113.19153 -24.03269 15.08927 39.40416 -10.57364 -2.99616 -35.17767 -6.91247 -3.27968 -2.37553 37.54052 4.25007 0.15393 -26.03913 -7.16209 3.14827 2.30472
-0.23233 0.00262 0.22924 -278.5712 -26.95274 -3.51835 32.5829 -1.05766 -13.13587 -9.07348 16.62516 -0.83079 -23.4959 -2.72983 -39.40535 21.85768 78.03737 -8.83881 -1.19011 12.60629 7.966 -13.37944 137.63499 -126.29631 -31.84589 13.51746 38.47433 -11.10297 -2.4121 -33.31285 -6.996 -3.4646 -2.47758 37.59523 4.68492 -0.34624 -26.11024 -7.15025 3.11908 2.28413
-0.22736 0.00326 0.22705 -277.80017 -27.1353 -3.77226 32.90026 -1.01824 -13.13692 -9.219 17.54698 -0.83079 -23.93354 -2.35928 -41.96258 20.60438 77.65111 -9.59987 -1.12521 12.29951 8.04416 -12.66902 137.61598 -136.34351 -37.70595 12.21176 37.61986 -11.6601 -1.87249 -31.58832 -7.08334 -3.56508 -2.53372 37.76415 5.16086 -0.78407 -26.21502 -7.13976 3.07503 2.2564
-0.22015 0.00363 0.22469 -277.08997 -27.52336 -3.93368 33.55349 -1.06459 -13.04612 -9.5106 18.00482 -0.83079 -24.57342 -1.96762 -42.87612 20.71858 77.41163 -9.74639 -1.17523 11.95659 8.52547 -10.85645 137.62771 -137.04842 -37.6877 11.89987 37.01462 -12.29477 -1.56076 -30.30456 -7.17251 -3.43248 -2.4634 38.2508 5.74398 -1.09167 -26.40373 -7.13401 2.99515 2.21208
-0.212 0.00386 0.22229 -276.40497 -27.97616 -4.05068 34.32031 -1.14137 -12.91399 -9.84997 18.2609 -0.83079 -25.27186 -1.57819 -43.16854 21.35267 77.23099 -9.67944 -1.26389 11.55411 9.1618 -8.59224 137.62413 -134.6098 -35.68228 11.88555 36.49285 -12.94706 -1.29798 -29.18532 -7.26412 -3.2162 -2.3476 38.84379 6.3682 -1.33884 -26.62425 -7.12973 2.90147 2.16127
-0.20416 0.0041 0.21994 -275.72039 -28.38473 -4.18016 35.02061 -1.20553 -12.78948 -10.16248 18.58957 -0.83079 -25.93 -1.20224 -43.6869 21.75465 77.03023 -9.72067 -1.33503 11.15368 9.72574 -6.50843 137.62363 -133.73525 -34.68542 11.72344 35.93618 -13.57312 -0.99078 -28.01933 -7.35535 -3.03947 -2.25329 39.37187 6.97468 -1.60932 -26.82898 -7.1245 2.81519 2.11411
-0.1968 0.00454 0.21743 -274.97977 -28.85833 -4.34064 35.7868 -1.26508 -12.7149 -10.49589 18.99666 -0.83079 -26.64816 -0.76698 -44.44512 22.14719 76.80341 -9.71623 -1.40489 10.842 10.30427 -4.51565 137.62499 -132.39396 -33.29575 11.57937 35.3603 -14.28391 -0.76782 -26.72063 -7.44613 -2.85394 -2.15421 39.9741 7.57721 -1.89469 -27.04137 -7.11994 2.72335 2.06353
-0.18821 0.00454 0.21526 -274.36495 -29.21029 -4.42589 36.44114 -1.34006 -12.52416 -10.79748 19.18812 -0.83079 -27.25133 -0.453 -44.56581 22.68114 76.64269 -9.75551 -1.48627 10.33817 10.88639 -2.22867 137.62413 -131.23559 -32.2287 11.48178 34.84653 -14.81624 -0.38392 -25.74343 -7.53615 -2.66948 -2.05563 40.44476 8.19825 -2.13366 -27.24423 -7.1149 2.63996 2.01862
-0.17668 0.00344 0.214 -274.08008 -29.21848 -4.32338 36.76387 -1.46465 -12.03896 -10.99924 18.8981 -0.83079 -27.56058 -0.50157 -42.94337 23.46102 76.66945 -9.96868 -1.59952 9.3151 11.4428 0.72387 137.62443 -131.37944 -32.58273 11.44068 34.4872 -14.89105 0.44471 -25.60835 -7.63956 -2.48683 -1.95838 40.53697 8.85309 -2.28737 -27.4167 -7.1042 2.58555 1.99229
-0.16393 0.0019 0.2131 -273.92291 -29.1007 -4.14563 36.96869 -1.60073 -11.43547 -11.16761 18.38749 -0.83079 -27.74561 -0.66861 -40.71979 24.36679 76.75812 -10.23242 -1.72185 8.1046 11.99455 3.9586 137.62447 -131.79667 -33.31619 11.44104 34.18848 -14.77813 1.43568 -25.7941 -7.73924 -2.31183 -1.8651 40.49155 9.52576 -2.39392 -27.57723 -7.09399 2.54006 1.97187
